<svg width="30" height="25" viewBox="0 0 30 25" fill="none" xmlns="http://www.w3.org/2000/svg">
<path d="M21.6395 0C18.7814 0 16.3391 1.94309 14.9973 3.2827C13.6555 1.94309 11.2186 0 8.36182 0C3.43773 0 0 3.27359 0 7.95963C0 13.123 4.26955 16.4603 8.4 19.6884C10.35 21.214 12.3682 22.7903 13.9159 24.5383C14.1764 24.8309 14.5582 25 14.9591 25H15.0382C15.4405 25 15.8209 24.8296 16.08 24.5383C17.6305 22.7903 19.6473 21.2127 21.5986 19.6884C25.7277 16.4616 30 13.1243 30 7.95963C30 3.27359 26.5623 0 21.6395 0Z" fill="#D8315B"/>
</svg>
