<svg width="20" height="17" viewBox="0 0 20 17" fill="none" xmlns="http://www.w3.org/2000/svg">
<path d="M19.947 5.98414C19.8842 5.82986 19.7685 5.6943 19.6142 5.59419C19.46 5.49408 19.2739 5.4338 19.079 5.42081L13.378 5.04331L10.911 0.492473C10.8325 0.3459 10.7047 0.221408 10.5431 0.134021C10.3815 0.0466343 10.193 8.82325e-05 10.0004 1.25315e-07C9.80771 -8.79819e-05 9.61916 0.0462857 9.45745 0.133524C9.29574 0.220763 9.16779 0.345139 9.08903 0.49164L6.62203 5.04331L0.921026 5.42081C0.729482 5.43345 0.546364 5.49182 0.393581 5.58892C0.240798 5.68602 0.124819 5.81774 0.0595194 5.96833C-0.00578038 6.11892 -0.0176359 6.282 0.0253712 6.43806C0.0683784 6.59412 0.164427 6.73655 0.302026 6.84831L4.51503 10.2708L3.02503 15.6475C2.97978 15.8102 2.99428 15.9805 3.06665 16.1363C3.13901 16.2921 3.26589 16.4262 3.43083 16.5212C3.59577 16.6161 3.79115 16.6676 3.99161 16.6689C4.19208 16.6701 4.38837 16.6212 4.55503 16.5283L10 13.5033L15.445 16.5283C15.6154 16.6226 15.8162 16.6711 16.0207 16.6673C16.2251 16.6636 16.4232 16.6078 16.5884 16.5074C16.7536 16.407 16.878 16.2669 16.9448 16.1059C17.0116 15.9448 17.0176 15.7706 16.962 15.6066L15.133 10.2733L19.669 6.87164C19.966 6.64831 20.075 6.29997 19.947 5.98414Z" fill="#0A2463"/>
</svg>
